<svg width="27" height="31" viewBox="0 0 27 31" fill="none" xmlns="http://www.w3.org/2000/svg">
<path d="M26.8086 15.6836C26.8086 20.2539 25.6497 23.8477 23.332 26.4648C21.0273 29.082 17.7982 30.3906 13.6445 30.3906C9.4388 30.3906 6.18359 29.1081 3.87891 26.543C1.58724 23.9648 0.441406 20.332 0.441406 15.6445C0.441406 10.9961 1.58073 7.39583 3.85938 4.84375C6.15104 2.27865 9.42578 0.996094 13.6836 0.996094C17.8242 0.996094 21.0469 2.29818 23.3516 4.90234C25.6562 7.49349 26.8086 11.0872 26.8086 15.6836ZM4.23047 15.6836C4.23047 19.4596 5.03125 22.3372 6.63281 24.3164C8.23438 26.2956 10.5716 27.2852 13.6445 27.2852C16.7044 27.2852 19.0286 26.3086 20.6172 24.3555C22.2057 22.4023 23 19.5117 23 15.6836C23 11.8685 22.2122 8.9974 20.6367 7.07031C19.0612 5.13021 16.7435 4.16016 13.6836 4.16016C10.5846 4.16016 8.23438 5.14323 6.63281 7.10938C5.03125 9.0625 4.23047 11.9206 4.23047 15.6836Z" fill="black"/>
</svg>
