<svg width="66" height="76" viewBox="0 0 66 76" fill="none" xmlns="http://www.w3.org/2000/svg">
<path d="M0.910156 46.5381C0.910156 48.4502 1.1709 50.1595 1.69238 51.666C2.21387 53.1146 2.90918 54.4762 3.77832 55.751C4.7054 57.0257 5.74837 58.2715 6.90723 59.4883C8.06608 60.6471 9.25391 61.9219 10.4707 63.3125C11.0501 63.8919 11.5716 64.5583 12.0352 65.3115C12.5566 66.0648 13.1361 66.6732 13.7734 67.1367C14.8164 67.89 15.8594 68.4694 16.9023 68.875C18.0033 69.2806 19.1042 69.7152 20.2051 70.1787C20.7845 70.4105 21.335 70.8451 21.8564 71.4824C22.4359 72.1198 23.0153 72.4674 23.5947 72.5254C23.6527 72.5254 23.7975 72.5254 24.0293 72.5254C24.319 72.5254 24.5798 72.5254 24.8115 72.5254C25.1592 72.5254 25.4489 72.5254 25.6807 72.5254C25.9124 72.5254 26.0573 72.5254 26.1152 72.5254C26.2311 72.5833 26.5208 72.6413 26.9844 72.6992C27.5059 72.7572 27.8245 72.7861 27.9404 72.7861C29.2152 73.0758 30.4899 73.4814 31.7646 74.0029C33.0394 74.5244 34.2562 75.0749 35.415 75.6543H40.6299C41.4411 75.6543 42.484 75.1618 43.7588 74.1768C45.0335 73.1338 46.2793 71.917 47.4961 70.5264C48.7708 69.1357 49.9007 67.7741 50.8857 66.4414C51.9287 65.1087 52.653 64.1237 53.0586 63.4863C53.1745 63.1387 53.3483 62.9648 53.5801 62.9648C53.8698 62.9069 54.1016 62.7331 54.2754 62.4434C54.623 62.0957 55.0576 61.5742 55.5791 60.8789C56.1585 60.1836 56.5931 59.6042 56.8828 59.1406C56.8828 59.0827 56.9118 58.9668 56.9697 58.793C57.0277 58.5612 57.0566 58.3874 57.0566 58.2715C57.1725 58.1556 57.4622 57.8659 57.9258 57.4023C58.4473 56.9388 58.766 56.6491 58.8818 56.5332C59.2295 56.1276 59.4033 55.7799 59.4033 55.4902C59.4033 55.0846 59.4902 54.679 59.6641 54.2734C59.8958 53.694 60.2145 53.0277 60.6201 52.2744C61.0257 51.5212 61.4023 50.7679 61.75 50.0146C62.1556 49.2035 62.5033 48.4212 62.793 47.668C63.0827 46.9147 63.2565 46.2484 63.3145 45.6689C63.3145 45.5531 63.3145 45.2923 63.3145 44.8867C63.3145 44.3652 63.3145 43.8727 63.3145 43.4092C63.3145 42.8877 63.3145 42.4242 63.3145 42.0186C63.3145 41.4971 63.3145 41.1784 63.3145 41.0625C63.4303 38.7448 63.807 36.485 64.4443 34.2832C65.0817 32.0234 65.4004 29.6768 65.4004 27.2432C65.4004 26.2581 65.2845 25.1283 65.0527 23.8535C64.821 22.5208 64.4733 21.2171 64.0098 19.9424C63.6042 18.6097 63.0537 17.3929 62.3584 16.292C61.721 15.1331 60.9098 14.293 59.9248 13.7715C59.1715 13.25 58.3893 12.9023 57.5781 12.7285C56.8249 12.4967 56.0716 12.1491 55.3184 11.6855C54.4492 11.222 53.696 10.6136 53.0586 9.86035C52.4792 9.04915 51.7549 8.38281 50.8857 7.86133C50.4222 7.45573 49.5241 6.90527 48.1914 6.20996C46.9167 5.51465 45.526 4.81934 44.0195 4.12402C42.571 3.42871 41.1514 2.82031 39.7607 2.29883C38.4281 1.7194 37.4141 1.42969 36.7188 1.42969C36.6029 1.42969 36.3421 1.42969 35.9365 1.42969C35.473 1.42969 35.0094 1.42969 34.5459 1.42969C34.0244 1.42969 33.5609 1.42969 33.1553 1.42969C32.6917 1.42969 32.431 1.42969 32.373 1.42969C32.2572 1.42969 31.9674 1.40072 31.5039 1.34277C31.0404 1.28483 30.5479 1.22689 30.0264 1.16895C29.5049 1.05306 29.0124 0.966146 28.5488 0.908203C28.0853 0.85026 27.7956 0.821289 27.6797 0.821289H27.4189C26.4919 0.821289 25.5648 0.879232 24.6377 0.995117C23.7686 1.05306 22.9284 1.25586 22.1172 1.60352C20.263 2.24089 18.4958 3.39974 16.8154 5.08008C15.193 6.70247 13.6865 8.4987 12.2959 10.4688C10.9053 12.4388 9.65951 14.5247 8.55859 16.7266C7.51562 18.8704 6.67546 20.7826 6.03809 22.4629C5.9222 22.8105 5.77734 23.3031 5.60352 23.9404C5.48763 24.5778 5.3138 25.2731 5.08203 26.0264C4.9082 26.7217 4.73438 27.388 4.56055 28.0254C4.38672 28.6048 4.21289 29.0104 4.03906 29.2422C3.34375 32.0234 2.73535 34.8337 2.21387 37.6729C1.69238 40.4541 1.25781 43.3223 0.910156 46.2773V46.5381ZM4.21289 42.4531V42.3662C4.27083 42.1924 4.32878 41.9027 4.38672 41.4971C4.44466 41.0915 4.5026 40.6859 4.56055 40.2803C4.67643 39.8167 4.79232 39.4401 4.9082 39.1504C5.02409 38.8027 5.08203 38.5999 5.08203 38.542C5.13997 38.1943 5.25586 37.7308 5.42969 37.1514C5.66146 36.514 5.89323 35.8766 6.125 35.2393C6.41471 34.5439 6.67546 33.9066 6.90723 33.3271C7.19694 32.7477 7.42871 32.3132 7.60254 32.0234C7.60254 31.9655 7.68945 31.9076 7.86328 31.8496C8.03711 31.7917 8.12402 31.7627 8.12402 31.7627C8.29785 31.6468 8.47168 31.3861 8.64551 30.9805C8.87728 30.5169 9.08008 30.0244 9.25391 29.5029C9.48568 28.9814 9.65951 28.4889 9.77539 28.0254C9.94922 27.5039 10.0941 27.1273 10.21 26.8955C10.8473 25.6787 11.6296 24.6068 12.5566 23.6797C13.5417 22.6947 14.5557 21.7676 15.5986 20.8984C16.1201 20.4928 16.5547 20.0583 16.9023 19.5947C17.3079 19.0732 17.7425 18.5807 18.2061 18.1172C19.1911 17.306 20.1182 16.6396 20.9873 16.1182C21.8564 15.5387 22.7546 15.0462 23.6816 14.6406C24.6087 14.235 25.5938 13.8874 26.6367 13.5977C27.6797 13.3079 28.8096 13.0182 30.0264 12.7285C30.1423 12.6706 30.4899 12.5837 31.0693 12.4678C31.6488 12.2939 31.9964 12.207 32.1123 12.207C33.2712 12.1491 34.3141 12.3519 35.2412 12.8154C36.2262 13.221 37.1533 13.7715 38.0225 14.4668C38.8337 15.1042 39.4131 15.7415 39.7607 16.3789C40.1084 17.0163 40.3691 17.6826 40.543 18.3779C40.7168 19.0732 40.8327 19.8265 40.8906 20.6377C41.0065 21.391 41.1803 22.2021 41.4121 23.0713C41.5859 23.7666 41.7308 24.346 41.8467 24.8096C42.0205 25.2152 42.2233 25.5628 42.4551 25.8525C42.6868 26.1423 43.0055 26.403 43.4111 26.6348C43.8167 26.8665 44.3382 27.2142 44.9756 27.6777C45.3812 27.9674 45.6709 28.3151 45.8447 28.7207C46.0765 29.1263 46.3952 29.474 46.8008 29.7637C47.2064 29.9954 47.641 30.1403 48.1045 30.1982C48.568 30.2562 48.9736 30.459 49.3213 30.8066H53.4932C53.9567 30.8066 54.3623 31.0964 54.71 31.6758C55.1156 32.2552 55.4342 32.9215 55.666 33.6748C55.8978 34.4281 56.0716 35.1813 56.1875 35.9346C56.3034 36.6878 56.3613 37.2093 56.3613 37.499C56.3613 37.9046 56.2165 38.2233 55.9268 38.4551C55.695 38.6289 55.4342 38.8027 55.1445 38.9766C54.9128 39.0924 54.652 39.2663 54.3623 39.498C54.1305 39.6719 54.0146 39.9906 54.0146 40.4541C54.0146 41.2653 54.2174 41.9316 54.623 42.4531C55.0866 42.9746 55.3184 43.6699 55.3184 44.5391V44.7129C55.2604 45.2344 55.2314 46.0166 55.2314 47.0596C55.2314 48.0446 55.0576 48.8848 54.71 49.5801C54.4202 50.2174 53.638 51.4632 52.3633 53.3174C51.0885 55.1715 49.6689 57.0837 48.1045 59.0537C46.54 60.9658 45.0046 62.6751 43.498 64.1816C42.0495 65.6302 40.9775 66.3545 40.2822 66.3545H34.7197C33.2712 65.833 31.8226 65.5433 30.374 65.4854C28.9834 65.4274 27.5638 65.1956 26.1152 64.79C24.6087 64.3265 23.305 63.863 22.2041 63.3994C21.1032 62.9359 20.0892 62.4144 19.1621 61.835C18.235 61.1976 17.3369 60.4733 16.4678 59.6621C15.5986 58.8509 14.6136 57.8079 13.5127 56.5332C13.3968 56.4173 13.1071 56.1276 12.6436 55.6641C12.18 55.1426 11.8903 54.8239 11.7744 54.708C10.9053 53.7809 10.2389 52.738 9.77539 51.5791C9.36979 50.4202 8.90625 49.3193 8.38477 48.2764C8.03711 47.6969 7.63151 46.9437 7.16797 46.0166C6.76237 45.0895 6.29883 44.3942 5.77734 43.9307C5.7194 43.8727 5.42969 43.6699 4.9082 43.3223C4.44466 42.9746 4.21289 42.6849 4.21289 42.4531Z" fill="black"/>
</svg>
